<?xml version="1.0" encoding="utf-8"?>
<!-- Generator: Adobe Illustrator 21.1.0, SVG Export Plug-In . SVG Version: 6.00 Build 0)  -->
<svg version="1.1" id="Layer_1" xmlns="http://www.w3.org/2000/svg" xmlns:xlink="http://www.w3.org/1999/xlink" x="0px" y="0px"
	 viewBox="0 0 75.5 68.3" style="enable-background:new 0 0 75.5 68.3;" xml:space="preserve">
<style type="text/css">
	.st0{fill:#FFFFFF;}
</style>
<title>Breakfast</title>
<g>
	<path class="st0" d="M65.5,40.6h4.2c1.6,0,3.1-0.6,4.2-1.8c1.1-1.1,1.7-2.7,1.7-4.2c0-3.3-2.6-6-5.9-6h-1.1v-3.9h-40v5.5
		c0,1.9,0.3,3.8,0.8,5.6c-0.8,0-1.5-0.1-2.3-0.1c-4.5,0-8.9,0.8-13.1,2.5c-1.3,0.5-2.1,1.9-1.9,3.3l0.1,0.7c-2.1,1.1-4,2.4-5.8,4
		c-0.8,0.7-1.1,1.7-1,2.7l0.2,1.4c-1.7,1.2-3.2,2.5-4.7,4c-0.9,0.9-1.2,2.3-0.7,3.6c0.4,1.1,1.5,1.9,2.7,1.9h47.9
		c1.2,0,2.3-0.8,2.8-1.9c0.5-1.2,0.2-2.6-0.7-3.6c-0.9-0.9-1.9-1.7-2.9-2.5H66c1.1,0,2.1-0.4,2.8-1.2l1.8-1.8H73v-2H59.4
		C61.8,45.1,63.9,43,65.5,40.6z M66.8,38.1c1.1-2.4,1.6-4.9,1.7-7.5h1.2c2.2,0,3.9,1.8,3.9,4c0,1.1-0.4,2.1-1.1,2.8
		c-0.7,0.7-1.7,1.2-2.7,1.2h-3.1C66.7,38.4,66.8,38.2,66.8,38.1z M3,57.7c-0.4,0-0.8-0.3-0.9-0.7c-0.2-0.5-0.1-1,0.3-1.4
		c1.2-1.1,2.4-2.2,3.7-3.2l0.8,5.2H3z M8.9,57.7l-1.4-9.1c-0.1-0.3,0.1-0.7,0.3-0.9c1.5-1.3,3.1-2.5,4.8-3.4l2.1,13.4H8.9z
		 M37.3,57.7H16.7l-2.6-16.6c-0.1-0.5,0.2-0.9,0.7-1.1c7.9-3.1,16.7-3.1,24.7,0c0.5,0.2,0.7,0.6,0.7,1.1l-2.6,16.6L37.3,57.7z
		 M46.7,48.6l-1.4,9.1h-0.2h-5.6l2.1-13.4c1.7,1,3.3,2.1,4.8,3.4C46.6,47.9,46.7,48.2,46.7,48.6z M51.5,55.7
		c0.3,0.4,0.4,0.9,0.3,1.3c-0.1,0.4-0.5,0.6-0.9,0.7h-3.6l0.8-5C49.3,53.6,50.4,54.6,51.5,55.7z M67.9,48.7l-0.4,0.4
		c-0.4,0.4-0.9,0.6-1.4,0.6H48.5l0.1-0.8c0-0.1,0-0.1,0-0.2H67.9z M54.8,46.7h-6.7c-0.1-0.2-0.3-0.3-0.4-0.5c-1.8-1.6-3.7-2.9-5.8-4
		l0.1-0.7c0.2-1.4-0.6-2.8-1.9-3.3c-2.8-1.1-5.7-1.8-8.6-2.2c-0.7-1.9-1-3.8-1-5.8v-3.5h36v3.5c0,2.4-0.5,4.9-1.5,7.1
		C63,41.7,59.4,45.1,54.8,46.7z"/>
	<path class="st0" d="M45.7,15.1c0.8,0.7,1.2,1.1,1.2,1.9s-0.4,1.2-1.2,1.9c-1.1,0.8-1.8,2-1.8,3.4h2c0-0.8,0.4-1.2,1.2-1.9
		c1.1-0.8,1.8-2,1.8-3.4c0-1.4-0.7-2.7-1.9-3.4c-0.8-0.7-1.2-1.1-1.2-1.9c0-0.8,0.4-1.2,1.2-1.9c1.1-0.8,1.8-2,1.8-3.4h-2
		c0,0.8-0.4,1.2-1.2,1.9c-1.1,0.8-1.8,2-1.8,3.4C43.9,13,44.6,14.3,45.7,15.1z"/>
	<path class="st0" d="M54,17.6c-1.1,0.8-1.8,2.1-1.8,3.4h2c0-0.9,0.4-1.2,1.2-1.9c1.1-0.8,1.8-2,1.8-3.4c0-1.4-0.7-2.6-1.8-3.4
		c-0.8-0.7-1.2-1.1-1.2-1.9c0-0.8,0.4-1.2,1.2-1.9c1.1-0.8,1.8-2,1.8-3.4h-2c0,0.8-0.4,1.2-1.2,1.9c-1.1,0.8-1.8,2-1.8,3.4
		c0,1.4,0.7,2.6,1.8,3.4c0.8,0.7,1.2,1.1,1.2,1.9S54.8,16.9,54,17.6z"/>
</g>
</svg>
