<?xml version="1.0" encoding="utf-8"?>
<!-- Generator: Adobe Illustrator 21.1.0, SVG Export Plug-In . SVG Version: 6.00 Build 0)  -->
<svg version="1.1" id="Layer_1" xmlns="http://www.w3.org/2000/svg" xmlns:xlink="http://www.w3.org/1999/xlink" x="0px" y="0px"
	 viewBox="0 0 32 32" style="enable-background:new 0 0 32 32;" xml:space="preserve">
<g id="OUTLINE_copy_2">
	<g>
		<path d="M16,0.3C7.3,0.3,0.3,7.3,0.3,16c0,8.7,7,15.7,15.7,15.7s15.7-7,15.7-15.7C31.7,7.3,24.7,0.3,16,0.3z M11.9,22.2H8.7v-9.6
			h3.2V22.2z M10.3,11.2L10.3,11.2c-1.1,0-1.8-0.7-1.8-1.7c0-0.9,0.7-1.7,1.8-1.7s1.8,0.7,1.8,1.7C12.1,10.5,11.4,11.2,10.3,11.2z
			 M23.5,22.2L23.5,22.2h-3.2V17c0-1.3-0.5-2.2-1.6-2.2c-0.9,0-1.4,0.6-1.6,1.2c-0.1,0.2-0.1,0.5-0.1,0.8v5.4h-3.2c0,0,0-8.7,0-9.6
			h3.2v1.4c0.4-0.7,1.2-1.6,2.9-1.6c2.1,0,3.7,1.4,3.7,4.3L23.5,22.2z"/>
	</g>
</g>
</svg>
