<?xml version="1.0" encoding="utf-8"?>
<!-- Generator: Adobe Illustrator 24.0.3, SVG Export Plug-In . SVG Version: 6.00 Build 0)  -->
<svg version="1.1" xmlns="http://www.w3.org/2000/svg" xmlns:xlink="http://www.w3.org/1999/xlink" x="0px" y="0px"
	 viewBox="0 0 100 125" style="enable-background:new 0 0 100 125;" xml:space="preserve">
<g id="Layer_2">
</g>
<g id="Layer_1">
	<g>
		<path d="M56.6,69.3l-9,9.6l-4.3-4.7c-1.2-1.2-3.1-1.3-4.3-0.1s-1.3,3.1-0.1,4.3l6.6,7.1c0.6,0.6,1.4,1,2.2,1s1.7-0.4,2.2-1
			l11.2-12c1.2-1.2,1.1-3.2-0.1-4.3C59.7,68,57.8,68,56.6,69.3z"/>
		<path d="M37,46.5c0.6,0,1.1-0.1,1.7-0.2c3-0.6,5.6-2.6,7.2-5.7c1.5-2.9,2-6.5,1.3-10.1c-1.3-6.9-6.4-11.8-12-11.8
			c-0.6,0-1.1,0.1-1.7,0.2c-3,0.6-5.6,2.6-7.2,5.7c-1.5,2.9-2,6.5-1.3,10.1C26.3,41.6,31.5,46.5,37,46.5z M31.8,27.4
			c0.5-1,1.4-2.2,2.9-2.5c0.2,0,0.4-0.1,0.6-0.1c2.2,0,5.1,2.6,5.9,6.8c0.4,2.3,0.2,4.5-0.7,6.2c-0.5,1-1.4,2.2-2.9,2.5
			c-0.2,0-0.4,0.1-0.5,0.1c-2.2,0-5.1-2.6-5.9-6.8C30.6,31.3,30.9,29.1,31.8,27.4z"/>
		<path d="M24.1,46.1c-1.2-3.4-3.3-6.2-6-7.9c-1.9-1.2-3.9-1.8-5.8-1.8c-1,0-2,0.2-3,0.5c-5.7,2-8.3,9.3-5.9,16.4
			c1.2,3.4,3.3,6.2,6,7.9c1.9,1.2,3.9,1.8,5.8,1.8c1,0,2-0.2,3-0.5C23.9,60.5,26.5,53.2,24.1,46.1z M16.2,56.7
			c-0.3,0.1-0.6,0.2-1,0.2c-0.8,0-1.6-0.3-2.5-0.8c-1.6-1-2.8-2.7-3.5-4.8c-1.4-4.1,0-7.9,2.1-8.6c0.3-0.1,0.6-0.2,1-0.2
			c0.8,0,1.6,0.3,2.5,0.8c1.6,1,2.8,2.7,3.5,4.8s0.8,4.3,0.1,6C18.1,54.9,17.5,56.2,16.2,56.7z"/>
		<path d="M61.4,46.4c0.6,0.1,1.1,0.2,1.7,0.2c5.5,0,10.7-5,11.9-11.8c0.7-3.6,0.2-7.2-1.3-10.1c-1.6-3.1-4.1-5.1-7.2-5.7
			c-0.6-0.1-1.1-0.2-1.7-0.2c-5.5,0-10.7,5-12,11.8c-0.7,3.6-0.2,7.2,1.3,10.1C55.8,43.8,58.3,45.8,61.4,46.4z M58.9,31.7
			c0.8-4.2,3.7-6.8,5.9-6.8c0.2,0,0.4,0,0.6,0.1c1.5,0.3,2.4,1.5,2.9,2.5c0.9,1.7,1.2,3.9,0.7,6.2c-0.8,4.2-3.7,6.8-5.9,6.8
			c-0.2,0-0.4,0-0.6-0.1c-1.5-0.3-2.4-1.5-2.9-2.5C58.7,36.2,58.5,34,58.9,31.7z"/>
		<path d="M90.7,36.8c-1-0.3-2-0.5-3-0.5c-2,0-4,0.6-5.8,1.8c-2.7,1.8-4.8,4.6-6,7.9c-2.4,7.1,0.2,14.4,5.9,16.4c1,0.3,2,0.5,3,0.5
			c2,0,4-0.6,5.8-1.8c2.7-1.8,4.8-4.6,6-7.9C99,46.1,96.4,38.8,90.7,36.8z M90.8,51.2c-0.7,2.1-2,3.8-3.5,4.8
			c-0.8,0.6-1.7,0.8-2.5,0.8c-0.3,0-0.7-0.1-1-0.2c-2.1-0.7-3.5-4.5-2.1-8.6c0.7-2.1,2-3.8,3.5-4.8c0.8-0.6,1.7-0.8,2.5-0.8
			c0.3,0,0.7,0.1,1,0.2C90.8,43.4,92.2,47.1,90.8,51.2z"/>
		<path d="M63.5,53.5c-3.9-3.2-8.7-4.8-13.5-4.8s-9.6,1.6-13.5,4.8C27,61.2,16,72.3,16,82.6c0,12.4,17,18.7,34,18.7s34-6.2,34-18.7
			C84,72.3,73,61.2,63.5,53.5z M50,95.1c-13.7,0-27.9-4.7-27.9-12.6c0-6.1,6.6-14.9,18.2-24.3c2.7-2.2,6.2-3.4,9.7-3.4
			s6.9,1.2,9.7,3.4c11.6,9.4,18.2,18.2,18.2,24.3C77.9,90.4,63.7,95.1,50,95.1z"/>
	</g>
</g>
</svg>
