<?xml version="1.0" encoding="utf-8"?>
<!-- Generator: Adobe Illustrator 24.0.3, SVG Export Plug-In . SVG Version: 6.00 Build 0)  -->
<svg version="1.1" id="Layer_1" xmlns="http://www.w3.org/2000/svg" xmlns:xlink="http://www.w3.org/1999/xlink" x="0px" y="0px"
	 viewBox="0 0 100 125" style="enable-background:new 0 0 100 125;" xml:space="preserve">
<title>6</title>
<path d="M20.6,87.5L20.6,87.5L20.6,87.5c9.9,9.7,23,15.2,36.8,15.5c4.8,0,9.6-0.8,14.1-2.5c1.9-0.8,3.1-2.6,3.1-4.6v-6.6
	c0-2.3-1.2-4.5-3.2-5.7l-11.8-7c-1.9-1.2-4.5-0.6-5.7,1.4L49,85.8c-0.4,0.6-1.3,0.4-1.4,0.3c-5.8-1.6-10.7-4.6-15.9-9.8
	c-5.2-5.2-8.2-10.1-9.8-15.9c0-0.2-0.3-1.1,0.3-1.4c1.2-0.7,2.8-1.7,4.3-2.7l3.5-2.2c1.9-1.2,2.5-3.7,1.4-5.7l-7-11.8
	c-1.2-2-3.3-3.2-5.7-3.2h-6.6c-2,0-3.9,1.2-4.6,3.1C1.4,52.3,6.8,73.6,20.3,87.3L20.6,87.5z M10.9,37.8c0.2-0.5,0.7-0.9,1.3-0.8h6.6
	c1.1,0,2,0.6,2.6,1.5l7,11.8c0.2,0.3,0.1,0.6-0.2,0.8l-3.5,2.2c-1.6,1-3.2,2-4.4,2.7c-1.8,1.2-2.6,3.4-1.9,5.4
	c1.7,6.4,5.2,11.9,10.7,17.5c5.6,5.6,11.2,9,17.5,10.7c2,0.7,4.3-0.1,5.4-1.9l4.9-7.8c0.2-0.3,0.5-0.3,0.8-0.2l11.8,7
	c0.9,0.5,1.5,1.5,1.5,2.6v6.6c0,0.6-0.3,1.1-0.8,1.3c-14.5,5.7-34.3,0.6-47-12.1c0,0-0.1-0.1-0.1-0.1l-0.2-0.1
	C10.3,72,5.2,52.3,10.9,37.8z M93.2,13H45c-1,0-1.8,0.8-1.8,1.8c0,0,0,0,0,0v36c0,1,0.8,1.8,1.8,1.8c0,0,0,0,0,0h2.4l-4.1,9.7
	c-0.4,0.9,0,2,1,2.4c0.5,0.2,1.1,0.2,1.5-0.1l22.3-12h25.1c1,0,1.8-0.8,1.8-1.8c0,0,0,0,0,0v-36C95,13.8,94.2,13,93.2,13
	C93.2,13,93.2,13,93.2,13z M91.4,49H67.7c-0.3,0-0.6,0.1-0.9,0.2L48.6,59l3.2-7.5c0.4-0.9,0-2-1-2.4C50.6,49,50.4,49,50.1,49h-3.3
	V16.6h44.6L91.4,49z M83,29.1H55.2v-3.6H83V29.1z M83,40.1H55.2v-3.6H83V40.1z"/>
</svg>
