<?xml version="1.0" encoding="utf-8"?>
<!-- Generator: Adobe Illustrator 24.0.3, SVG Export Plug-In . SVG Version: 6.00 Build 0)  -->
<svg version="1.1" id="Layer_1" xmlns="http://www.w3.org/2000/svg" xmlns:xlink="http://www.w3.org/1999/xlink" x="0px" y="0px"
	 viewBox="0 0 100 125" style="enable-background:new 0 0 100 125;" xml:space="preserve">
<g>
	<ellipse transform="matrix(0.3827 -0.9239 0.9239 0.3827 -30.465 59.172)" cx="29" cy="52.4" rx="4.4" ry="4.4"/>
	<ellipse transform="matrix(0.3827 -0.9239 0.9239 0.3827 -7.0742 94.1787)" cx="66.9" cy="52.4" rx="4.4" ry="4.4"/>
	<path d="M92.4,24.2L75.8,31c-2.7-1.1-5.7-1.8-8.9-1.8c-7.8,0-14.8,3.9-18.9,9.8c-4.2-6-11.1-9.8-18.9-9.8c-2.4,0-4.7,0.4-6.8,1
		L4.9,23.2L11,37.9c-3.2,4-5.1,9-5.1,14.4c0,12.8,10.4,23.2,23.2,23.2c5.4,0,10.4-1.9,14.4-5l4.2,10L52,70.1c4,3.4,9.3,5.5,15,5.5
		c12.8,0,23.2-10.4,23.2-23.2c0-4.8-1.5-9.2-3.9-12.9L92.4,24.2z M29,63.3c-6,0-10.9-4.9-10.9-10.9S23,41.5,29,41.5
		s10.9,4.9,10.9,10.9C39.9,58.4,35.1,63.3,29,63.3z M66.9,63.3c-6,0-10.9-4.9-10.9-10.9s4.9-10.9,10.9-10.9s10.9,4.9,10.9,10.9
		C77.8,58.4,73,63.3,66.9,63.3z"/>
</g>
</svg>
