<?xml version="1.0" encoding="utf-8"?>
<!-- Generator: Adobe Illustrator 24.0.3, SVG Export Plug-In . SVG Version: 6.00 Build 0)  -->
<svg version="1.1" id="Layer_1" xmlns="http://www.w3.org/2000/svg" xmlns:xlink="http://www.w3.org/1999/xlink" x="0px" y="0px"
	 viewBox="0 0 512 640" style="enable-background:new 0 0 512 640;" xml:space="preserve">
<g>
	<path d="M128.3,390.5c-2.2-2.2-5.8-2.2-8,0c-2.2,2.2-2.2,5.8,0,8l11.2,11.2l42.3,42.3c1.1,1.1,2.6,1.7,4,1.7c1.5,0,2.9-0.6,4-1.7
		c2.2-2.2,2.2-5.8,0-8l-22.7-22.7l116.7-116.7c2.2-2.2,2.2-5.8,0-8s-5.8-2.2-8,0L151.1,413.2l-7.5-7.5l168.6-168.6
		c2.2-2.2,2.2-5.8,0-8c-2.2-2.2-5.8-2.2-8,0L135.5,397.7L128.3,390.5z"/>
	<path d="M344.2,202.7c1.5,0,2.9-0.6,4-1.7l31.5-31.5c1.1,3.5,2.8,6.9,5.1,10l-90.3,90.3c-2.2,2.2-2.2,5.8,0,8
		c1.1,1.1,2.6,1.7,4,1.7c1.5,0,2.9-0.6,4-1.7l90.3-90.3c3,2.2,6.4,3.9,9.9,5.1L181,414.3c-2.2,2.2-2.2,5.8,0,8
		c1.1,1.1,2.6,1.7,4,1.7c1.4,0,2.9-0.6,4-1.7l228.1-228.1c8.5-0.7,16.3-4.4,22.4-10.4l30.6-30.6c1.1-1.1,1.7-2.5,1.7-4
		s-0.6-2.9-1.7-4l-43-43c-1.1-1.1-2.5-1.7-4-1.7s-2.9,0.6-4,1.7l-30.6,30.6c-6.2,6.2-9.7,14.2-10.4,22.4L340.2,193
		c-2.2,2.2-2.2,5.8,0,8C341.3,202.1,342.8,202.7,344.2,202.7z M396.5,140.7l26.6-26.6l35,35l-26.6,26.6c-4.7,4.7-10.9,7.3-17.5,7.3
		c-6.6,0-12.8-2.6-17.5-7.3C386.9,166.1,386.9,150.4,396.5,140.7z"/>
	<path d="M324.8,222.1c1.5,0,2.9-0.6,4-1.7l0.9-0.9c2.2-2.2,2.2-5.8,0-8s-5.8-2.2-8,0l-0.9,0.9c-2.2,2.2-2.2,5.8,0,8
		C321.9,221.5,323.3,222.1,324.8,222.1z"/>
	<path d="M57.3,369.9c1.6,0,3.2-0.7,4.4-2c0.7-0.9,1.5-1.8,2.3-2.6c2.1-2.3,2-5.9-0.3-8c-2.3-2.1-5.9-2-8,0.3c-0.9,1-1.8,2-2.7,3
		c-2,2.4-1.7,6,0.7,8C54.8,369.5,56,369.9,57.3,369.9z"/>
	<path d="M155.8,305.6c-0.1,0.4-0.2,0.9-0.2,1.3c-2.9,17.1-18,28.6-34.5,26.3c-0.5-0.1-1.1-0.2-1.6-0.3c-11.3-2.1-23.5-0.2-36.2,5.6
		c-2.9,1.3-4.1,4.7-2.8,7.5c1,2.1,3,3.3,5.2,3.3c0.8,0,1.6-0.2,2.3-0.5c10.5-4.8,20.4-6.4,29.4-4.7c0.7,0.1,1.4,0.2,2.1,0.3
		c2,0.3,4,0.4,6,0.4c20.2,0,37.8-14.9,41.4-36.1c0.1-0.4,0.1-0.8,0.2-1.1c2.7-14.5,11.9-26.3,25.2-32.5c13.4-6.2,28.9-5.5,41.4,1.8
		c2.7,1.6,6.2,0.7,7.8-2c1.6-2.7,0.7-6.2-2-7.8c-15.7-9.1-35.1-10-51.9-2.3C170.7,272.6,159.1,287.4,155.8,305.6z"/>
	<path d="M297.6,331.4c-2.7,1.6-3.7,5-2.1,7.7c7.1,12.5,7.7,27.9,1.5,41.3c-6.1,13.2-17.9,22.4-32.4,25c-0.4,0.1-0.8,0.1-1.2,0.2
		c-23.2,3.9-38.9,24.7-35.6,47.3c0.1,0.7,0.2,1.4,0.3,2.1c4.8,25.9-19.1,51.3-19.3,51.5c-26.4,26.4-69.4,26.4-95.8,0l-47.3-47.3
		c-18.7-18.7-24.8-46.8-15.6-71.6c1.1-2.9-0.4-6.2-3.3-7.3c-2.9-1.1-6.2,0.4-7.3,3.3c-10.8,28.9-3.6,61.7,18.2,83.6l47.3,47.3
		c15.4,15.4,35.6,23.1,55.9,23.1s40.6-7.7,56-23.2c1.2-1.2,28.1-29.8,22.3-61.5c-0.1-0.5-0.2-1.1-0.3-1.6
		c-2.2-16.5,9.4-31.7,26.5-34.5c0.4-0.1,0.9-0.2,1.3-0.2c18.1-3.3,32.9-14.8,40.6-31.4c7.7-16.7,7-36-2-51.7
		C303.7,330.8,300.3,329.8,297.6,331.4z"/>
	<path d="M395.8,106.1c1.1,1.1,2.6,1.7,4,1.7c1.5,0,2.9-0.6,4-1.7c2.2-2.2,2.2-5.8,0-8l-1.5-1.5c-2.2-2.2-5.8-2.2-8,0
		c-2.2,2.2-2.2,5.8,0,8L395.8,106.1z"/>
	<path d="M378.7,123.3c1.1,1.1,2.6,1.7,4,1.7c1.4,0,2.9-0.6,4-1.7c2.2-2.2,2.2-5.8,0-8l-1.5-1.5c-2.2-2.2-5.8-2.2-8,0s-2.2,5.8,0,8
		L378.7,123.3z"/>
	<path d="M475.7,169.9l-1.5-1.5c-2.2-2.2-5.8-2.2-8,0c-2.2,2.2-2.2,5.8,0,8l1.5,1.5c1.1,1.1,2.6,1.7,4,1.7c1.5,0,2.9-0.6,4-1.7
		C477.9,175.7,477.9,172.1,475.7,169.9z"/>
	<path d="M449,185.6c-2.2,2.2-2.2,5.8,0,8l1.5,1.5c1.1,1.1,2.6,1.7,4,1.7c1.5,0,2.9-0.6,4-1.7c2.2-2.2,2.2-5.8,0-8l-1.5-1.5
		C454.8,183.4,451.2,183.4,449,185.6z"/>
	<path d="M93.5,274.1c0.8,0.4,1.6,0.5,2.4,0.5c2.1,0,4.2-1.2,5.2-3.3c1.3-2.8,0.1-6.2-2.7-7.5c-16.1-7.5-26.5-23.8-26.5-41.5
		c0-9,2.6-17.8,7.6-25.3c1.9-2.8,4-5.4,6.4-7.7c0,0,0.1,0,0.1-0.1l23.5-23.2v78.2c-6.7-2.4-11.7-8.6-12.5-16l-0.1-0.6
		c-0.7-7.5,1-14.8,5-21.1c1.7-2.7,0.9-6.2-1.8-7.8c-2.7-1.7-6.2-0.9-7.8,1.8c-5.3,8.4-7.6,18.2-6.6,28.2l0.1,0.8
		c1.5,13.1,11.2,23.9,23.8,26.5v45.7c0,0.3,0,0.5,0.1,0.8c-0.4,5.2-4.8,9.3-10.1,9.3c-5.6,0-10.1-4.5-10.1-10.1c0-4.4,3-8.4,7.2-9.7
		c3-0.9,4.7-4,3.8-7.1c-0.9-3-4.1-4.7-7.1-3.8c-9,2.7-15.4,11.1-15.4,20.6c0,11.8,9.6,21.5,21.5,21.5c11.8,0,21.5-9.6,21.5-21.5
		c0-0.4,0-0.8-0.1-1.2v-21.1c22.9-1.3,42.8-16.3,50.5-37.5c0.1-0.1,0.1-0.2,0.2-0.4c2.7-6.6,3.7-13.9,3-21.1
		c-2.3-24.7-24.2-42.9-48.7-40.6c-1.7,0.2-3.4,0.4-5,0.8v-72.3c0-1.6,0.7-3.2,1.9-4.3c1.2-1,2.7-1.5,4.2-1.3l0.4,0.1
		c5,0.7,8.9,3.9,10.5,8.7c1.6,4.8,0.5,9.9-3.1,13.4l-6.8,6.8c-2.2,2.2-2.2,5.8,0,8s5.8,2.2,8,0l6.9-6.8c6.6-6.6,8.8-16.2,5.8-25.1
		c-3-8.8-10.5-15.1-19.7-16.3l-0.6-0.1c-4.7-0.6-9.5,0.9-13.1,4.1c-3.7,3.2-5.8,7.9-5.8,12.8V150l-31.3,31c0,0-0.1,0-0.1,0.1
		c-3,2.9-5.7,6.2-8.1,9.6c-6.2,9.4-9.5,20.3-9.5,31.5C60.5,244.4,73.5,264.7,93.5,274.1z M120.8,192.1c2-0.6,4-1,6.1-1.2
		c18.3-1.7,34.6,11.9,36.3,30.4c0.3,3,0.2,6-0.3,8.8c-0.2,0.4-0.4,0.8-0.5,1.3c-4.1,20.1-21.3,35-41.6,36.4V192.1z"/>
	<path d="M137.4,209.8c-2.9,1.2-4.2,4.6-3,7.5c1.1,2.5,1.6,5.2,1.6,8c0,4.8-1.7,9.5-4.9,13.2c-2,2.4-1.8,6,0.6,8
		c1.1,0.9,2.4,1.4,3.7,1.4c1.6,0,3.2-0.7,4.3-2c4.9-5.7,7.6-13,7.6-20.6c0-4.3-0.9-8.5-2.6-12.5
		C143.6,209.9,140.3,208.6,137.4,209.8z"/>
	<path d="M466.6,378.6h-12.4c-3.1,0-5.7,2.5-5.7,5.7s2.5,5.7,5.7,5.7h6.8v27.5c0,28-22.8,50.8-50.8,50.8h-16.3
		c-28,0-50.8-22.8-50.8-50.8V390h6.3c3.1,0,5.7-2.5,5.7-5.7s-2.5-5.7-5.7-5.7h-12c-3.1,0-5.7,2.5-5.7,5.7v33.1
		c0,34.3,27.9,62.1,62.1,62.1h2.5V491c-15.7,2.7-27.6,16.4-27.6,32.8V543c0,3.1,2.5,5.7,5.7,5.7h55.2c3.1,0,5.7-2.5,5.7-5.7v-19.2
		c0-16.4-12-30.1-27.6-32.8v-11.5h2.5c34.3,0,62.1-27.9,62.1-62.1v-33.1C472.3,381.2,469.8,378.6,466.6,378.6z M424,523.9v13.5
		h-43.9v-13.5c0-12.1,9.8-21.9,21.9-21.9C414.1,501.9,424,511.8,424,523.9z"/>
	<path d="M440,366.5h-0.2c0-20.8-16.9-37.7-37.7-37.7c-20.8,0-37.7,16.9-37.7,37.7V402c0,0.9,0,1.8,0.1,2.6c-0.1,0.3-0.1,0.7-0.1,1
		c0,0.8,0.2,1.6,0.5,2.2c2.8,18,18.5,31.8,37.3,31.8s34.4-13.8,37.3-31.8c0.3-0.7,0.5-1.4,0.5-2.2c0-0.3,0-0.7-0.1-1
		c0.1-0.9,0.1-1.7,0.1-2.6V366.5z M428.4,400L428.4,400h-8c-3.1,0-5.7,2.5-5.7,5.7c0,3.1,2.5,5.7,5.7,5.7h6.2
		c-3.8,9.9-13.4,17.1-24.6,17.1c-11.3,0-20.9-7.1-24.6-17.1h6.2c3.1,0,5.7-2.5,5.7-5.7c0-3.1-2.5-5.7-5.7-5.7h-8v-27.8h8
		c3.1,0,5.7-2.5,5.7-5.7c0-3.1-2.5-5.7-5.7-5.7h-7.3c2.6-11.8,13.2-20.7,25.7-20.7s23.1,8.9,25.7,20.7h-7.3c-3.1,0-5.7,2.5-5.7,5.7
		c0,3.1,2.5,5.7,5.7,5.7h8V400z"/>
</g>
</svg>
