<?xml version="1.0" encoding="utf-8"?>
<!-- Generator: Adobe Illustrator 24.0.3, SVG Export Plug-In . SVG Version: 6.00 Build 0)  -->
<svg version="1.1" id="Layer_1" xmlns="http://www.w3.org/2000/svg" xmlns:xlink="http://www.w3.org/1999/xlink" x="0px" y="0px"
	 viewBox="0 0 100 125" style="enable-background:new 0 0 100 125;" xml:space="preserve">
<path d="M25.8,54.1h48.5c0.8,0,1.5-0.7,1.5-1.5s-0.7-1.5-1.5-1.5H25.8c-0.8,0-1.5,0.7-1.5,1.5S24.9,54.1,25.8,54.1z M76.6,59.5h-0.9
	c0-0.5,0.1-1.1,0.1-1.6c0-0.8-0.7-1.5-1.5-1.5H25.8c-0.8,0-1.5,0.7-1.5,1.5c0,0.5,0,1.1,0.1,1.6h-0.9c-2.4,0-4.4,2-4.4,4.4
	c0,0.8,0.7,1.5,1.5,1.5s1.5-0.7,1.5-1.5c0-0.8,0.6-1.4,1.4-1.4h1.2c1.5,8.1,6.7,14.9,13.9,18.4L34,101.2c-0.2,0.8,0.3,1.6,1.1,1.8
	c0.1,0,0.2,0,0.3,0c0.7,0,1.3-0.5,1.5-1.2l2.1-9.5h22l0.7,2.9c-1.2,0.8-1.9,2.1-1.9,3.5c0,2.3,1.9,4.2,4.2,4.2
	c2.3,0,4.2-1.9,4.2-4.2c0-2.1-1.6-3.9-3.7-4.2L61.5,81c7.1-3.6,12.4-10.4,13.9-18.4h1.2c0.8,0,1.4,0.6,1.4,1.4
	c0,0.8,0.7,1.5,1.5,1.5s1.5-0.7,1.5-1.5C80.9,61.5,79,59.5,76.6,59.5z M64,97.6c0.7,0,1.3,0.6,1.3,1.2s-0.6,1.2-1.2,1.2
	s-1.2-0.6-1.2-1.2S63.3,97.6,64,97.6z M39.7,89.4l1.6-7.3c2.7,1,5.6,1.5,8.7,1.5s6-0.5,8.7-1.5l1.6,7.3H39.7z M50,80.7
	c-12,0-21.9-9.4-22.7-21.2h45.4C71.9,71.3,62,80.7,50,80.7z M60.5,43.7c-0.6,0.6-0.6,1.5,0,2.1c0.3,0.3,0.7,0.4,1.1,0.4
	s0.8-0.1,1.1-0.4c2.5-2.5,2.5-6.6,0-9.1c-0.6-0.6-1-1.5-1-2.4c0-0.9,0.4-1.8,1-2.4c0.6-0.6,0.6-1.5,0-2.1c-0.6-0.6-1.5-0.6-2.1,0
	c-1.2,1.2-1.9,2.8-1.9,4.6c0,1.7,0.7,3.3,1.9,4.6C61.9,40.2,61.9,42.4,60.5,43.7z M48.9,43.7c-0.6,0.6-0.6,1.5,0,2.1
	c0.3,0.3,0.7,0.4,1.1,0.4s0.8-0.1,1.1-0.4c2.5-2.5,2.5-6.6,0-9.1c-0.6-0.6-1-1.5-1-2.4c0-0.9,0.4-1.8,1-2.4c0.6-0.6,0.6-1.5,0-2.1
	c-0.6-0.6-1.5-0.6-2.1,0c-1.2,1.2-1.9,2.8-1.9,4.6c0,1.7,0.7,3.3,1.9,4.6C50.3,40.2,50.3,42.4,48.9,43.7z M38.4,41.3
	c0,0.9-0.4,1.8-1,2.4c-0.6,0.6-0.6,1.5,0,2.1c0.3,0.3,0.7,0.4,1.1,0.4s0.8-0.1,1.1-0.4c2.5-2.5,2.5-6.6,0-9.1c-0.6-0.6-1-1.5-1-2.4
	c0-0.9,0.4-1.8,1-2.4c0.6-0.6,0.6-1.5,0-2.1s-1.5-0.6-2.1,0c-1.2,1.2-1.9,2.8-1.9,4.6c0,1.7,0.7,3.3,1.9,4.6
	C38,39.5,38.4,40.4,38.4,41.3z"/>
</svg>
