<?xml version="1.0" encoding="utf-8"?>
<!-- Generator: Adobe Illustrator 24.0.3, SVG Export Plug-In . SVG Version: 6.00 Build 0)  -->
<svg version="1.1" id="Layer_1" xmlns="http://www.w3.org/2000/svg" xmlns:xlink="http://www.w3.org/1999/xlink" x="0px" y="0px"
	 viewBox="0 0 128 160" style="enable-background:new 0 0 128 160;" xml:space="preserve">
<title>Beauty&amp;amp; cosmetics 2 final</title>
<g>
	<path d="M52,102.5c-13.7,1.2-37.2,1.4-50,1.5c-1.1,0-2,0.9-2,2s0.9,2,2,2v-0.1c12.9,0,36.5-0.3,50.3-1.5c5.2-0.4,13-0.1,21.2,0.2
		c16.5,0.7,33.5,1.4,40.5-3c4.3-2.7,6.3-5.7,7.1-8.5c1.5,0.8,3.1,1.2,4.8,1.2c1.1,0,2-0.9,2-2c0-1.1-0.9-2-2-2
		c-1.6-0.1-3.1-0.6-4.4-1.6c-0.1-1.9-0.7-3.8-1.6-5.6c-0.6-0.9-1.9-1.1-2.8-0.4c-0.8,0.6-1,1.6-0.6,2.4c0.4,0.8,4.1,7.6-4.7,13.1
		c-5.9,3.7-23.8,3-38.2,2.4C65.4,102.4,57.4,102,52,102.5z"/>
	<path d="M1.5,98.2c0.1,0,0.2,0,0.3,0c1.3,0.2,2.5,0.3,3.8,0.3c2.8,0,5.7-0.4,8.4-1.2c10.5-2.9,33.2-5.7,40.2-3.5
		c15.1,4.8,28.5,0.7,35.5-2.3c-1-0.9-1.7-2.2-1.9-3.6C81.4,90.6,69,94.3,55.4,90c-5.2-1.6-16.7-1-27,0.5c-0.9-13,3.5-20.7,5-23
		c2.4,1.2,5,2,7.6,2.2c-2.1,2.9-1.4,6.8,1.4,8.9c1.1,0.8,2.3,1.2,3.7,1.2c1,0,2-0.2,2.9-0.7c2-1,5.7-4,9.4-7.2l1.1-0.9
		c2.6-1.7,5-3.7,7-6c8.7-1.7,19.2-2.6,28.6,0.1c2.1,0.6,4.1,1.3,6,2.3c2.6,1.3,5,2.9,7.2,4.8c0.3,0.3,0.7,0.6,1,1
		c1.8,1.8,4.2,4.3,6.8,4.3c0.2,0,0.4,0,0.7-0.1c1.8-0.3,2.9-1.8,4.1-3.3c1.7-2.2,3-3.6,4.9-3.3c1.1,0.1,2.1-0.7,2.2-1.8
		c0.1-1-0.6-1.9-1.5-2.1c-4.5-0.7-7,2.6-8.8,4.8c-0.5,0.7-1,1.3-1.6,1.8c-0.8,0.1-3.2-2.3-3.9-3.1c-0.5-0.5-0.9-0.9-1.2-1.2
		c-3.9-3.5-8.6-6.1-13.7-7.7c-2.6-0.8-5.4-1.4-8.1-1.7c-6.4-0.7-12.8-0.5-19.1,0.5c2.2-3.3,3.8-7.1,4.5-11c0.2-1.1-0.5-2.1-1.6-2.3
		c-1.1-0.2-2.1,0.5-2.3,1.6c-2.1,12-13.1,18.8-13.2,18.9c-0.6,0.4-1.1,0.9-1.6,1.3c-2,1.7-6.7,5.7-8.5,6.6c-1.2,0.6-2.6,0.1-3.1-1.1
		c-0.4-0.9-0.2-2,0.5-2.7c6.9-6.5,11.5-11.8,13.6-15.7c1.4-2.6,2.5-5.4,3.4-8.2c1.2-3.7,2-6.2,5.8-9.4c0.9-0.6,1.2-1.8,0.6-2.8
		c-0.6-0.9-1.8-1.2-2.8-0.6c-0.2,0.1-0.3,0.2-0.4,0.4c-4.7,4-5.8,7.3-7,11.2c-0.8,2.6-1.8,5.1-3.1,7.6c-1.6,2.7-4.9,6.7-9.7,11.6
		c-3.7,0.3-7.5-0.6-10.7-2.6c-0.4-1.6-1.2-3-2.4-4.1c-5.7-5.6-19.4-6.5-29.8-6.3c-1.1,0-2,0.9-2,2c0,1.1,0.9,2,2,2
		c13.6-0.2,23.4,1.6,27,5.2c0.8,0.7,1.3,1.7,1.4,2.7c-1.8,2.4-7.2,11.1-6,26.3c-3.9,0.6-7.7,1.4-11.4,2.4c-3.5,1-7.1,1.3-10.7,0.8
		c-1.1-0.2-2.1,0.5-2.4,1.5C-0.3,96.9,0.4,98,1.5,98.2z"/>
	<path d="M126,111H2c-1.1,0-2,0.9-2,2s0.9,2,2,2h124c1.1,0,2-0.9,2-2S127.1,111,126,111z"/>
	<path d="M126,124.2H2c-1.1,0-2,0.9-2,2c0,1.1,0.9,2,2,2h4.5v7c0,1.1,0.9,2,2,2s2-0.9,2-2v-7h106v7c0,1.1,0.9,2,2,2s2-0.9,2-2v-7
		h5.5c1.1,0,2-0.9,2-2C128,125.1,127.1,124.2,126,124.2z"/>
	<circle cx="93.8" cy="87.1" r="2"/>
	<path d="M47.5,20.6c1.6,1.7,3.6,1.5,5,1.3c2-0.2,2.9-0.3,3.8,2.7c0.4,1,1.5,1.6,2.6,1.2c1-0.4,1.5-1.4,1.2-2.4c-2-6-5.8-5.7-8-5.4
		c-1.1,0.1-1.5,0.1-1.7-0.1s0.1-1.3,0.3-1.8c0.5-1,0.5-2.2,0-3.3c0.9-0.6,1.1-1.9,0.5-2.8c-0.4-0.6-1.1-0.9-1.8-0.9
		c-1.2,0.2-2.3,0.9-2.7,2.1c-0.4,1.1-0.3,2.3,0.4,3.2c0,0.2-0.1,0.3-0.1,0.5C46.5,16.3,45.7,18.7,47.5,20.6z"/>
	<path d="M44.7,59.9c3.1-1.8,6-3.5,7.5-6.3c1.4-2.8,2.4-5.8,2.9-8.9c0.2-1.1-0.5-2.1-1.6-2.3c-1.1-0.2-2.1,0.5-2.3,1.6
		c-0.4,2.7-1.3,5.4-2.5,7.8c-1,1.9-3.3,3.2-6,4.8c-2,1.1-3.9,2.4-5.7,3.8c1.5,0.8,3.1,1.3,4.7,1.5C42.7,61.1,43.7,60.5,44.7,59.9z"
		/>
	<path d="M75.7,28.4c6.5,2.7,7.4,10.1,8.4,17.2c0.5,3.7,1,7.2,2.1,10.1c1.6,0.1,3.2,0.3,4.8,0.5c-1.8-2.4-2.4-6.7-3-11.1
		c-1-7.9-2.2-16.9-10.8-20.4C68.3,21.1,71.3,13,71.7,12c0.4-1-0.1-2.2-1.1-2.6c-1-0.4-2.2,0.1-2.6,1.1c-0.1,0.2-2.2,5.5-0.1,10.7
		C69.3,24.4,71.9,26.8,75.7,28.4z"/>
</g>
</svg>
