<?xml version="1.0" encoding="utf-8"?>
<!-- Generator: Adobe Illustrator 21.1.0, SVG Export Plug-In . SVG Version: 6.00 Build 0)  -->
<svg version="1.1" id="Layer_1" xmlns="http://www.w3.org/2000/svg" xmlns:xlink="http://www.w3.org/1999/xlink" x="0px" y="0px"
	 viewBox="0 0 512 512" style="enable-background:new 0 0 512 512;" xml:space="preserve">
<path d="M256,7.6C118.8,7.6,7.6,118.8,7.6,256S118.8,504.4,256,504.4S504.4,393.2,504.4,256S393.2,7.6,256,7.6z M355.4,204.5
	c3.2,71.7-50.3,151.5-144.9,151.5c-28.8,0-55.6-8.4-78.1-22.9c27.1,3.2,54-4.3,75.5-21.1c-22.3-0.4-41.1-15.1-47.6-35.4
	c8,1.6,15.8,1.1,23-0.9c-24.5-4.9-41.4-27-40.8-50.6c6.9,3.8,14.7,6.1,23.1,6.4c-22.7-15.1-29.1-45.1-15.8-68
	c25.1,30.9,62.7,51.1,105.1,53.3c-7.4-31.9,16.8-62.6,49.7-62.6c14.7,0,27.8,6.2,37.2,16.1c11.6-2.3,22.5-6.5,32.4-12.3
	c-3.8,11.9-11.9,21.9-22.4,28.2c10.3-1.3,20.1-4,29.3-8.1C374,188.4,365.3,197.3,355.4,204.5z"/>
</svg>
