<?xml version="1.0" encoding="utf-8"?>
<!-- Generator: Adobe Illustrator 21.1.0, SVG Export Plug-In . SVG Version: 6.00 Build 0)  -->
<svg version="1.1" id="Instagram" xmlns="http://www.w3.org/2000/svg" xmlns:xlink="http://www.w3.org/1999/xlink" x="0px" y="0px"
	 viewBox="0 0 1024 1024" style="enable-background:new 0 0 1024 1024;" xml:space="preserve">
<g>
	<path d="M600.3,268.7H423.7c-75.7,0-137.4,61.6-137.4,137.4v193.8c0,75.7,61.6,137.4,137.4,137.4h176.7
		c75.7,0,137.4-61.6,137.4-137.4V406.1C737.7,330.4,676.1,268.7,600.3,268.7z M512,641.7c-76.5,0-138.7-62.2-138.7-138.7
		S435.5,364.3,512,364.3S650.7,426.5,650.7,503S588.5,641.7,512,641.7z M653.5,392.8c-17.6,0-31.9-14.3-31.9-31.9
		c0-17.6,14.3-31.9,31.9-31.9c17.6,0,31.9,14.3,31.9,31.9C685.4,378.5,671.1,392.8,653.5,392.8z"/>
	<path d="M512,9.4C239.4,9.4,18.4,230.4,18.4,503s221,493.6,493.6,493.6s493.6-221,493.6-493.6S784.6,9.4,512,9.4z M781.1,599.9
		c0,99.7-81.1,180.7-180.7,180.7H423.7c-99.7,0-180.7-81.1-180.7-180.7V406.1c0-99.7,81.1-180.7,180.7-180.7h176.7
		c99.7,0,180.7,81.1,180.7,180.7V599.9z"/>
	<path d="M512,407.6c-52.6,0-95.4,42.8-95.4,95.4c0,52.6,42.8,95.4,95.4,95.4c52.6,0,95.4-42.8,95.4-95.4
		C607.4,450.4,564.6,407.6,512,407.6z"/>
</g>
</svg>
