<?xml version="1.0" encoding="utf-8"?>
<!-- Generator: Adobe Illustrator 24.0.3, SVG Export Plug-In . SVG Version: 6.00 Build 0)  -->
<svg version="1.1" id="Layer_1" xmlns="http://www.w3.org/2000/svg" xmlns:xlink="http://www.w3.org/1999/xlink" x="0px" y="0px"
	 viewBox="0 0 100 125" style="enable-background:new 0 0 100 125;" xml:space="preserve">
<title>scroll-down</title>
<desc>Created with Sketch.</desc>
<g>
	<path d="M67.5,16.7c-1.2-0.4-2.6,0.2-3,1.4c-0.4,1.2,0.2,2.6,1.4,3c9.2,3.3,15.4,12.1,15.4,22v37.4c0,12.9-10.5,23.4-23.4,23.4
		h-9.4c-12.9,0-23.4-10.5-23.4-23.4V43.1c0-12.9,10.5-23.4,23.4-23.4h9.4c1.3,0,2.3-1,2.3-2.3s-1-2.3-2.3-2.3h-9.4
		c-15.5,0-28.1,12.6-28.1,28.1v37.4c0,15.5,12.6,28.1,28.1,28.1h9.4C73.4,108.6,86,96,86,80.5V43.1C86,31.2,78.5,20.7,67.5,16.7z"/>
	<path d="M55.6,61.8c0-1.3-1-2.3-2.3-2.3s-2.3,1-2.3,2.3v19.1l-5.2-6.5c-0.8-1-2.3-1.2-3.3-0.4c-1,0.8-1.2,2.3-0.4,3.3L51.4,89
		c0.9,1.2,2.7,1.2,3.7,0l9.4-11.7c0.8-1,0.6-2.5-0.4-3.3c-1-0.8-2.5-0.6-3.3,0.4l-5.2,6.5V61.8z"/>
</g>
</svg>
