<?xml version="1.0" encoding="utf-8"?>
<!-- Generator: Adobe Illustrator 24.0.3, SVG Export Plug-In . SVG Version: 6.00 Build 0)  -->
<svg version="1.1" id="Layer_1" xmlns="http://www.w3.org/2000/svg" xmlns:xlink="http://www.w3.org/1999/xlink" x="0px" y="0px"
	 viewBox="0 0 566.9 708.7" style="enable-background:new 0 0 566.9 708.7;" xml:space="preserve">
<title>a</title>
<path d="M497.9,105.5c5.9,0,10.6-4.8,10.6-10.6c0-5.9-4.8-10.6-10.6-10.6h-52.5c-3.6,0-6.9,1.8-8.9,4.8l-46.4,70.2H231.6
	c-5.4-52.3-49.5-93.2-103.3-93.2c-57.4,0-103.9,46.5-104,103.9c0,57.4,46.5,103.9,103.9,104c5.1,0,10.2-0.4,15.2-1.1
	c5.8-0.9,9.8-6.3,9-12.1c-0.9-5.8-6.3-9.8-12.1-9c-32,4.7-63.9-9.7-81.4-37c-24.7-38.3-13.7-89.5,24.6-114.2
	c38.3-24.7,89.5-13.7,114.2,24.6c6.9,10.6,11,22.3,12.5,34h-90.1c-2.3,0-4.5,0.7-6.4,2.1c-4.7,3.5-5.7,10.2-2.1,14.9l58.2,77.8
	c0,0.1,0.1,0.1,0.1,0.2c0.3,0.4,0.6,0.8,0.9,1.2l124.9,167v206.4h-77.8c-5.9,0-10.6,4.8-10.6,10.6c0,5.9,4.8,10.6,10.6,10.6h88.5
	h84.4c5.9,0,10.6-4.8,10.6-10.6c0-5.9-4.8-10.6-10.6-10.6H317V422.3l184.2-246.1c1.4-1.8,2.1-4.1,2.1-6.4c0-5.9-4.8-10.6-10.6-10.6
	h-77.1l35.5-53.7H497.9z M306.4,401.1l-95.2-127.2H334c0,0,0,0,0,0c0,0,0,0,0,0h67.5L306.4,401.1z M195.3,252.6l-1.5-2
	c21.4-17.4,35-42.6,37.9-70.1H376l-47.7,72.1H195.3z M210.2,180.5c-2.6,20.2-12.6,39.3-29.2,53l-39.7-53H210.2z M471.4,180.5
	l-53.9,72.1h-63.6l47.7-72.1H471.4z"/>
</svg>
