<?xml version="1.0" encoding="utf-8"?>
<!-- Generator: Adobe Illustrator 24.0.3, SVG Export Plug-In . SVG Version: 6.00 Build 0)  -->
<svg version="1.1" id="Layer_1" xmlns="http://www.w3.org/2000/svg" xmlns:xlink="http://www.w3.org/1999/xlink" x="0px" y="0px"
	 viewBox="0 0 72 90" style="enable-background:new 0 0 72 90;" xml:space="preserve">
<path d="M36,66c-0.6,0-1.2-0.3-1.5-0.7C33.6,64.3,14,40.6,14,28c0-12.2,9.8-22,22-22s22,9.8,22,22c0,12.6-19.6,36.3-20.5,37.3
	C37.2,65.7,36.6,66,36,66z M36,10c-9.9,0-18,8.1-18,18c0,8.5,11.8,25.1,18,32.8c6.2-7.7,18-24.4,18-32.8C54,18.1,45.9,10,36,10z"/>
<path d="M36,38c-5.5,0-10-4.5-10-10s4.5-10,10-10s10,4.5,10,10S41.5,38,36,38z M36,22c-3.3,0-6,2.7-6,6s2.7,6,6,6s6-2.7,6-6
	S39.3,22,36,22z"/>
<path d="M68,74H4c-1.1,0-2-0.9-2-2c0-0.3,0.1-0.6,0.2-0.9l8-16c0.3-0.7,1-1.1,1.8-1.1h8c1.1,0,2,0.9,2,2s-0.9,2-2,2h-6.8l-6,12h57.5
	l-6-12H52c-1.1,0-2-0.9-2-2s0.9-2,2-2h8c0.8,0,1.5,0.4,1.8,1.1l8,16c0.5,1,0.1,2.2-0.9,2.7C68.6,73.9,68.3,74,68,74z"/>
</svg>
